{
	"asset":{
		"generator":"Khronos glTF Blender I/O v3.6.6",
		"version":"2.0"
	},
	"scene":0,
	"scenes":[
		{
			"name":"Scene",
			"nodes":[
				0
			]
		}
	],
	"nodes":[
		{
			"mesh":0,
			"name":"bong",
			"translation":[
				0,
				0.21603058278560638,
				0
			]
		}
	],
	"materials":[
		{
			"doubleSided":true,
			"name":"bong",
			"normalTexture":{
				"index":0
			},
			"pbrMetallicRoughness":{
				"baseColorTexture":{
					"index":1
				},
				"metallicFactor":0,
				"roughnessFactor":0.5
			}
		}
	],
	"meshes":[
		{
			"name":"Cylinder.002",
			"primitives":[
				{
					"attributes":{
						"POSITION":0,
						"TEXCOORD_0":1,
						"NORMAL":2
					},
					"indices":3,
					"material":0
				}
			]
		}
	],
	"textures":[
		{
			"sampler":0,
			"source":0
		},
		{
			"sampler":0,
			"source":1
		}
	],
	"images":[
		{
			"mimeType":"image/png",
			"name":"nmap_bong",
			"uri":"../../png/rgb/nmap_bong.png"
		},
		{
			"mimeType":"image/png",
			"name":"tex_bong",
			"uri":"../../png/gray/tex_bong.png"
		}
	],
	"accessors":[
		{
			"bufferView":0,
			"componentType":5126,
			"count":207,
			"max":[
				0.1665484607219696,
				0.11971358954906464,
				0.14999012649059296
			],
			"min":[
				-0.14999012649059296,
				-0.28942856192588806,
				-0.14999012649059296
			],
			"type":"VEC3"
		},
		{
			"bufferView":1,
			"componentType":5126,
			"count":207,
			"type":"VEC2"
		},
		{
			"bufferView":2,
			"componentType":5126,
			"count":207,
			"type":"VEC3"
		},
		{
			"bufferView":3,
			"componentType":5123,
			"count":678,
			"type":"SCALAR"
		}
	],
	"bufferViews":[
		{
			"buffer":0,
			"byteLength":2484,
			"byteOffset":0,
			"target":34962
		},
		{
			"buffer":0,
			"byteLength":1656,
			"byteOffset":2484,
			"target":34962
		},
		{
			"buffer":0,
			"byteLength":2484,
			"byteOffset":4140,
			"target":34962
		},
		{
			"buffer":0,
			"byteLength":1356,
			"byteOffset":6624,
			"target":34963
		}
	],
	"samplers":[
		{
			"magFilter":9729,
			"minFilter":9987
		}
	],
	"buffers":[
		{
			"byteLength":7980,
			"uri":"bong.bin"
		}
	]
}
