{
	"asset":{
		"generator":"Khronos glTF Blender I/O v3.6.6",
		"version":"2.0"
	},
	"extensionsUsed":[
		"KHR_materials_specular",
		"KHR_materials_ior"
	],
	"scene":0,
	"scenes":[
		{
			"name":"Scene",
			"nodes":[
				12
			]
		}
	],
	"nodes":[
		{
			"name":"barrel_inner",
			"rotation":[
				-3.0908644532701146e-08,
				-6.181724643283815e-08,
				0.7071067690849304,
				0.7071067690849304
			],
			"translation":[
				-0.12684032320976257,
				0.18077293038368225,
				-1.512509406609297e-08
			]
		},
		{
			"children":[
				0
			],
			"name":"root",
			"rotation":[
				0,
				0.7071067690849304,
				0,
				0.7071067690849304
			],
			"scale":[
				1,
				0.9999999403953552,
				1
			],
			"translation":[
				7.424307391090679e-09,
				-0.12051527947187424,
				-0.09354899078607559
			]
		},
		{
			"mesh":0,
			"name":"Balloon",
			"skin":0
		},
		{
			"mesh":1,
			"name":"Barrel0",
			"skin":0
		},
		{
			"mesh":2,
			"name":"Barrel1",
			"skin":0
		},
		{
			"mesh":3,
			"name":"Barrel2",
			"skin":0
		},
		{
			"mesh":4,
			"name":"Barrel3",
			"skin":0
		},
		{
			"mesh":5,
			"name":"Barrel4",
			"skin":0
		},
		{
			"mesh":6,
			"name":"Grip",
			"skin":0
		},
		{
			"mesh":7,
			"name":"Handle",
			"skin":0
		},
		{
			"mesh":8,
			"name":"Main",
			"skin":0
		},
		{
			"mesh":9,
			"name":"Trigger",
			"skin":0
		},
		{
			"children":[
				2,
				3,
				4,
				5,
				6,
				7,
				8,
				9,
				10,
				11,
				1
			],
			"name":"capsulegun",
			"translation":[
				0,
				-0.03999999910593033,
				0.17999997735023499
			]
		}
	],
	"animations":[
		{
			"channels":[
				{
					"sampler":0,
					"target":{
						"node":1,
						"path":"translation"
					}
				},
				{
					"sampler":1,
					"target":{
						"node":1,
						"path":"rotation"
					}
				},
				{
					"sampler":2,
					"target":{
						"node":0,
						"path":"translation"
					}
				},
				{
					"sampler":3,
					"target":{
						"node":0,
						"path":"rotation"
					}
				}
			],
			"name":"fire",
			"samplers":[
				{
					"input":71,
					"interpolation":"LINEAR",
					"output":72
				},
				{
					"input":71,
					"interpolation":"LINEAR",
					"output":73
				},
				{
					"input":71,
					"interpolation":"LINEAR",
					"output":74
				},
				{
					"input":75,
					"interpolation":"LINEAR",
					"output":76
				}
			]
		},
		{
			"channels":[
				{
					"sampler":0,
					"target":{
						"node":1,
						"path":"translation"
					}
				},
				{
					"sampler":1,
					"target":{
						"node":1,
						"path":"rotation"
					}
				},
				{
					"sampler":2,
					"target":{
						"node":0,
						"path":"translation"
					}
				},
				{
					"sampler":3,
					"target":{
						"node":0,
						"path":"rotation"
					}
				}
			],
			"name":"idle",
			"samplers":[
				{
					"input":77,
					"interpolation":"LINEAR",
					"output":78
				},
				{
					"input":79,
					"interpolation":"LINEAR",
					"output":80
				},
				{
					"input":77,
					"interpolation":"LINEAR",
					"output":81
				},
				{
					"input":79,
					"interpolation":"LINEAR",
					"output":82
				}
			]
		}
	],
	"materials":[
		{
			"doubleSided":true,
			"extensions":{
				"KHR_materials_specular":{
					"specularColorFactor":[
						0.5928394036103495,
						0.5928394036103495,
						0.5928394036103495
					]
				},
				"KHR_materials_ior":{
					"ior":1.4500000476837158
				}
			},
			"name":"baked",
			"normalTexture":{
				"index":0
			},
			"pbrMetallicRoughness":{
				"baseColorTexture":{
					"index":1
				},
				"metallicFactor":0,
				"roughnessFactor":36
			}
		}
	],
	"meshes":[
		{
			"name":"Balloon_LP.002",
			"primitives":[
				{
					"attributes":{
						"POSITION":0,
						"TEXCOORD_0":1,
						"NORMAL":2,
						"TANGENT":3,
						"JOINTS_0":4,
						"WEIGHTS_0":5
					},
					"indices":6,
					"material":0
				}
			]
		},
		{
			"name":"Barrel0_LP.002",
			"primitives":[
				{
					"attributes":{
						"POSITION":8,
						"TEXCOORD_0":9,
						"NORMAL":10,
						"TANGENT":11,
						"JOINTS_0":12,
						"WEIGHTS_0":13
					},
					"indices":14,
					"material":0
				}
			]
		},
		{
			"name":"Barrel1_LP.002",
			"primitives":[
				{
					"attributes":{
						"POSITION":15,
						"TEXCOORD_0":16,
						"NORMAL":17,
						"TANGENT":18,
						"JOINTS_0":19,
						"WEIGHTS_0":20
					},
					"indices":21,
					"material":0
				}
			]
		},
		{
			"name":"Barrel2_LP.002",
			"primitives":[
				{
					"attributes":{
						"POSITION":22,
						"TEXCOORD_0":23,
						"NORMAL":24,
						"TANGENT":25,
						"JOINTS_0":26,
						"WEIGHTS_0":27
					},
					"indices":28,
					"material":0
				}
			]
		},
		{
			"name":"Barrel3_LP.002",
			"primitives":[
				{
					"attributes":{
						"POSITION":29,
						"TEXCOORD_0":30,
						"NORMAL":31,
						"TANGENT":32,
						"JOINTS_0":33,
						"WEIGHTS_0":34
					},
					"indices":35,
					"material":0
				}
			]
		},
		{
			"name":"Barrel4_LP.002",
			"primitives":[
				{
					"attributes":{
						"POSITION":36,
						"TEXCOORD_0":37,
						"NORMAL":38,
						"TANGENT":39,
						"JOINTS_0":40,
						"WEIGHTS_0":41
					},
					"indices":42,
					"material":0
				}
			]
		},
		{
			"name":"Main1_LP.002",
			"primitives":[
				{
					"attributes":{
						"POSITION":43,
						"TEXCOORD_0":44,
						"NORMAL":45,
						"TANGENT":46,
						"JOINTS_0":47,
						"WEIGHTS_0":48
					},
					"indices":49,
					"material":0
				}
			]
		},
		{
			"name":"Handle0_LP.002",
			"primitives":[
				{
					"attributes":{
						"POSITION":50,
						"TEXCOORD_0":51,
						"NORMAL":52,
						"TANGENT":53,
						"JOINTS_0":54,
						"WEIGHTS_0":55
					},
					"indices":56,
					"material":0
				}
			]
		},
		{
			"name":"Main2_LP.002",
			"primitives":[
				{
					"attributes":{
						"POSITION":57,
						"TEXCOORD_0":58,
						"NORMAL":59,
						"TANGENT":60,
						"JOINTS_0":61,
						"WEIGHTS_0":62
					},
					"indices":63,
					"material":0
				}
			]
		},
		{
			"name":"Trigger_LP.002",
			"primitives":[
				{
					"attributes":{
						"POSITION":64,
						"TEXCOORD_0":65,
						"NORMAL":66,
						"TANGENT":67,
						"JOINTS_0":68,
						"WEIGHTS_0":69
					},
					"indices":70,
					"material":0
				}
			]
		}
	],
	"textures":[
		{
			"sampler":0,
			"source":0
		},
		{
			"sampler":0,
			"source":1
		}
	],
	"images":[
		{
			"mimeType":"image/png",
			"name":"nmap_capsulegun",
			"uri":"../../png/rgb/nmap_capsulegun.png"
		},
		{
			"mimeType":"image/png",
			"name":"tex_capsulegun",
			"uri":"../../png/gray/tex_capsulegun.png"
		}
	],
	"skins":[
		{
			"inverseBindMatrices":7,
			"joints":[
				1,
				0
			],
			"name":"capsulegun"
		}
	],
	"accessors":[
		{
			"bufferView":0,
			"componentType":5126,
			"count":1605,
			"max":[
				0.05326531082391739,
				0.15328429639339447,
				0.15718494355678558
			],
			"min":[
				-0.05326540768146515,
				0.0074896253645420074,
				-0.08880319446325302
			],
			"type":"VEC3"
		},
		{
			"bufferView":1,
			"componentType":5126,
			"count":1605,
			"type":"VEC2"
		},
		{
			"bufferView":2,
			"componentType":5126,
			"count":1605,
			"type":"VEC3"
		},
		{
			"bufferView":3,
			"componentType":5126,
			"count":1605,
			"type":"VEC4"
		},
		{
			"bufferView":4,
			"componentType":5121,
			"count":1605,
			"type":"VEC4"
		},
		{
			"bufferView":5,
			"componentType":5126,
			"count":1605,
			"type":"VEC4"
		},
		{
			"bufferView":6,
			"componentType":5123,
			"count":6114,
			"type":"SCALAR"
		},
		{
			"bufferView":7,
			"componentType":5126,
			"count":2,
			"type":"MAT4"
		},
		{
			"bufferView":8,
			"componentType":5126,
			"count":1350,
			"max":[
				0.021778885275125504,
				0.04590729624032974,
				0.355531245470047
			],
			"min":[
				-0.021778736263513565,
				-0.005226870998740196,
				0.1993524730205536
			],
			"type":"VEC3"
		},
		{
			"bufferView":9,
			"componentType":5126,
			"count":1350,
			"type":"VEC2"
		},
		{
			"bufferView":10,
			"componentType":5126,
			"count":1350,
			"type":"VEC3"
		},
		{
			"bufferView":11,
			"componentType":5126,
			"count":1350,
			"type":"VEC4"
		},
		{
			"bufferView":12,
			"componentType":5121,
			"count":1350,
			"type":"VEC4"
		},
		{
			"bufferView":13,
			"componentType":5126,
			"count":1350,
			"type":"VEC4"
		},
		{
			"bufferView":14,
			"componentType":5123,
			"count":3132,
			"type":"SCALAR"
		},
		{
			"bufferView":15,
			"componentType":5126,
			"count":168,
			"max":[
				0.021778898313641548,
				0.05734744668006897,
				0.348982036113739
			],
			"min":[
				-0.02177872695028782,
				-0.015769939869642258,
				0.28371527791023254
			],
			"type":"VEC3"
		},
		{
			"bufferView":16,
			"componentType":5126,
			"count":168,
			"type":"VEC2"
		},
		{
			"bufferView":17,
			"componentType":5126,
			"count":168,
			"type":"VEC3"
		},
		{
			"bufferView":18,
			"componentType":5126,
			"count":168,
			"type":"VEC4"
		},
		{
			"bufferView":19,
			"componentType":5121,
			"count":168,
			"type":"VEC4"
		},
		{
			"bufferView":20,
			"componentType":5126,
			"count":168,
			"type":"VEC4"
		},
		{
			"bufferView":21,
			"componentType":5123,
			"count":312,
			"type":"SCALAR"
		},
		{
			"bufferView":22,
			"componentType":5126,
			"count":76,
			"max":[
				0.01763967238366604,
				0.05398216098546982,
				0.3555312752723694
			],
			"min":[
				-0.017639514058828354,
				-0.01240464672446251,
				0.33743298053741455
			],
			"type":"VEC3"
		},
		{
			"bufferView":23,
			"componentType":5126,
			"count":76,
			"type":"VEC2"
		},
		{
			"bufferView":24,
			"componentType":5126,
			"count":76,
			"type":"VEC3"
		},
		{
			"bufferView":25,
			"componentType":5126,
			"count":76,
			"type":"VEC4"
		},
		{
			"bufferView":26,
			"componentType":5121,
			"count":76,
			"type":"VEC4"
		},
		{
			"bufferView":27,
			"componentType":5126,
			"count":76,
			"type":"VEC4"
		},
		{
			"bufferView":28,
			"componentType":5123,
			"count":132,
			"type":"SCALAR"
		},
		{
			"bufferView":29,
			"componentType":5126,
			"count":1512,
			"max":[
				0.015612847171723843,
				0.032152872532606125,
				0.35325711965560913
			],
			"min":[
				-0.015612665563821793,
				0.008527410216629505,
				0.25810569524765015
			],
			"type":"VEC3"
		},
		{
			"bufferView":30,
			"componentType":5126,
			"count":1512,
			"type":"VEC2"
		},
		{
			"bufferView":31,
			"componentType":5126,
			"count":1512,
			"type":"VEC3"
		},
		{
			"bufferView":32,
			"componentType":5126,
			"count":1512,
			"type":"VEC4"
		},
		{
			"bufferView":33,
			"componentType":5121,
			"count":1512,
			"type":"VEC4"
		},
		{
			"bufferView":34,
			"componentType":5126,
			"count":1512,
			"type":"VEC4"
		},
		{
			"bufferView":35,
			"componentType":5123,
			"count":3360,
			"type":"SCALAR"
		},
		{
			"bufferView":36,
			"componentType":5126,
			"count":2486,
			"max":[
				0.010173830203711987,
				0.030514024198055267,
				0.25038382411003113
			],
			"min":[
				-0.010173860006034374,
				0.010166332125663757,
				0.20273184776306152
			],
			"type":"VEC3"
		},
		{
			"bufferView":37,
			"componentType":5126,
			"count":2486,
			"type":"VEC2"
		},
		{
			"bufferView":38,
			"componentType":5126,
			"count":2486,
			"type":"VEC3"
		},
		{
			"bufferView":39,
			"componentType":5126,
			"count":2486,
			"type":"VEC4"
		},
		{
			"bufferView":40,
			"componentType":5121,
			"count":2486,
			"type":"VEC4"
		},
		{
			"bufferView":41,
			"componentType":5126,
			"count":2486,
			"type":"VEC4"
		},
		{
			"bufferView":42,
			"componentType":5123,
			"count":7920,
			"type":"SCALAR"
		},
		{
			"bufferView":43,
			"componentType":5126,
			"count":3256,
			"max":[
				0.021778859198093414,
				-0.004426531493663788,
				0.2622302770614624
			],
			"min":[
				-0.021778788417577744,
				-0.16051530838012695,
				0.03365868330001831
			],
			"type":"VEC3"
		},
		{
			"bufferView":44,
			"componentType":5126,
			"count":3256,
			"type":"VEC2"
		},
		{
			"bufferView":45,
			"componentType":5126,
			"count":3256,
			"type":"VEC3"
		},
		{
			"bufferView":46,
			"componentType":5126,
			"count":3256,
			"type":"VEC4"
		},
		{
			"bufferView":47,
			"componentType":5121,
			"count":3256,
			"type":"VEC4"
		},
		{
			"bufferView":48,
			"componentType":5126,
			"count":3256,
			"type":"VEC4"
		},
		{
			"bufferView":49,
			"componentType":5123,
			"count":10212,
			"type":"SCALAR"
		},
		{
			"bufferView":50,
			"componentType":5126,
			"count":2463,
			"max":[
				0.021778898313641548,
				0.05565584450960159,
				0.17165184020996094
			],
			"min":[
				-0.0217787716537714,
				-0.12984970211982727,
				-0.06894516944885254
			],
			"type":"VEC3"
		},
		{
			"bufferView":51,
			"componentType":5126,
			"count":2463,
			"type":"VEC2"
		},
		{
			"bufferView":52,
			"componentType":5126,
			"count":2463,
			"type":"VEC3"
		},
		{
			"bufferView":53,
			"componentType":5126,
			"count":2463,
			"type":"VEC4"
		},
		{
			"bufferView":54,
			"componentType":5121,
			"count":2463,
			"type":"VEC4"
		},
		{
			"bufferView":55,
			"componentType":5126,
			"count":2463,
			"type":"VEC4"
		},
		{
			"bufferView":56,
			"componentType":5123,
			"count":8328,
			"type":"SCALAR"
		},
		{
			"bufferView":57,
			"componentType":5126,
			"count":1842,
			"max":[
				0.021778913214802742,
				0.09930925071239471,
				0.3555311858654022
			],
			"min":[
				-0.021778738126158714,
				-0.034611403942108154,
				0.1320435106754303
			],
			"type":"VEC3"
		},
		{
			"bufferView":58,
			"componentType":5126,
			"count":1842,
			"type":"VEC2"
		},
		{
			"bufferView":59,
			"componentType":5126,
			"count":1842,
			"type":"VEC3"
		},
		{
			"bufferView":60,
			"componentType":5126,
			"count":1842,
			"type":"VEC4"
		},
		{
			"bufferView":61,
			"componentType":5121,
			"count":1842,
			"type":"VEC4"
		},
		{
			"bufferView":62,
			"componentType":5126,
			"count":1842,
			"type":"VEC4"
		},
		{
			"bufferView":63,
			"componentType":5123,
			"count":4998,
			"type":"SCALAR"
		},
		{
			"bufferView":64,
			"componentType":5126,
			"count":204,
			"max":[
				0.0050682672299444675,
				0.02142573706805706,
				0.06323880702257156
			],
			"min":[
				-0.005068282131105661,
				-0.015067003667354584,
				0.022492194548249245
			],
			"type":"VEC3"
		},
		{
			"bufferView":65,
			"componentType":5126,
			"count":204,
			"type":"VEC2"
		},
		{
			"bufferView":66,
			"componentType":5126,
			"count":204,
			"type":"VEC3"
		},
		{
			"bufferView":67,
			"componentType":5126,
			"count":204,
			"type":"VEC4"
		},
		{
			"bufferView":68,
			"componentType":5121,
			"count":204,
			"type":"VEC4"
		},
		{
			"bufferView":69,
			"componentType":5126,
			"count":204,
			"type":"VEC4"
		},
		{
			"bufferView":70,
			"componentType":5123,
			"count":912,
			"type":"SCALAR"
		},
		{
			"bufferView":71,
			"componentType":5126,
			"count":2,
			"max":[
				0.31666666666666665
			],
			"min":[
				0
			],
			"type":"SCALAR"
		},
		{
			"bufferView":72,
			"componentType":5126,
			"count":2,
			"type":"VEC3"
		},
		{
			"bufferView":73,
			"componentType":5126,
			"count":2,
			"type":"VEC4"
		},
		{
			"bufferView":74,
			"componentType":5126,
			"count":2,
			"type":"VEC3"
		},
		{
			"bufferView":75,
			"componentType":5126,
			"count":20,
			"max":[
				0.31666666666666665
			],
			"min":[
				0
			],
			"type":"SCALAR"
		},
		{
			"bufferView":76,
			"componentType":5126,
			"count":20,
			"type":"VEC4"
		},
		{
			"bufferView":77,
			"componentType":5126,
			"count":60,
			"max":[
				0.9833333333333333
			],
			"min":[
				0
			],
			"type":"SCALAR"
		},
		{
			"bufferView":78,
			"componentType":5126,
			"count":60,
			"type":"VEC3"
		},
		{
			"bufferView":79,
			"componentType":5126,
			"count":2,
			"max":[
				0.9833333333333333
			],
			"min":[
				0
			],
			"type":"SCALAR"
		},
		{
			"bufferView":80,
			"componentType":5126,
			"count":2,
			"type":"VEC4"
		},
		{
			"bufferView":81,
			"componentType":5126,
			"count":60,
			"type":"VEC3"
		},
		{
			"bufferView":82,
			"componentType":5126,
			"count":2,
			"type":"VEC4"
		}
	],
	"bufferViews":[
		{
			"buffer":0,
			"byteLength":19260,
			"byteOffset":0,
			"target":34962
		},
		{
			"buffer":0,
			"byteLength":12840,
			"byteOffset":19260,
			"target":34962
		},
		{
			"buffer":0,
			"byteLength":19260,
			"byteOffset":32100,
			"target":34962
		},
		{
			"buffer":0,
			"byteLength":25680,
			"byteOffset":51360,
			"target":34962
		},
		{
			"buffer":0,
			"byteLength":6420,
			"byteOffset":77040,
			"target":34962
		},
		{
			"buffer":0,
			"byteLength":25680,
			"byteOffset":83460,
			"target":34962
		},
		{
			"buffer":0,
			"byteLength":12228,
			"byteOffset":109140,
			"target":34963
		},
		{
			"buffer":0,
			"byteLength":128,
			"byteOffset":121368
		},
		{
			"buffer":0,
			"byteLength":16200,
			"byteOffset":121496,
			"target":34962
		},
		{
			"buffer":0,
			"byteLength":10800,
			"byteOffset":137696,
			"target":34962
		},
		{
			"buffer":0,
			"byteLength":16200,
			"byteOffset":148496,
			"target":34962
		},
		{
			"buffer":0,
			"byteLength":21600,
			"byteOffset":164696,
			"target":34962
		},
		{
			"buffer":0,
			"byteLength":5400,
			"byteOffset":186296,
			"target":34962
		},
		{
			"buffer":0,
			"byteLength":21600,
			"byteOffset":191696,
			"target":34962
		},
		{
			"buffer":0,
			"byteLength":6264,
			"byteOffset":213296,
			"target":34963
		},
		{
			"buffer":0,
			"byteLength":2016,
			"byteOffset":219560,
			"target":34962
		},
		{
			"buffer":0,
			"byteLength":1344,
			"byteOffset":221576,
			"target":34962
		},
		{
			"buffer":0,
			"byteLength":2016,
			"byteOffset":222920,
			"target":34962
		},
		{
			"buffer":0,
			"byteLength":2688,
			"byteOffset":224936,
			"target":34962
		},
		{
			"buffer":0,
			"byteLength":672,
			"byteOffset":227624,
			"target":34962
		},
		{
			"buffer":0,
			"byteLength":2688,
			"byteOffset":228296,
			"target":34962
		},
		{
			"buffer":0,
			"byteLength":624,
			"byteOffset":230984,
			"target":34963
		},
		{
			"buffer":0,
			"byteLength":912,
			"byteOffset":231608,
			"target":34962
		},
		{
			"buffer":0,
			"byteLength":608,
			"byteOffset":232520,
			"target":34962
		},
		{
			"buffer":0,
			"byteLength":912,
			"byteOffset":233128,
			"target":34962
		},
		{
			"buffer":0,
			"byteLength":1216,
			"byteOffset":234040,
			"target":34962
		},
		{
			"buffer":0,
			"byteLength":304,
			"byteOffset":235256,
			"target":34962
		},
		{
			"buffer":0,
			"byteLength":1216,
			"byteOffset":235560,
			"target":34962
		},
		{
			"buffer":0,
			"byteLength":264,
			"byteOffset":236776,
			"target":34963
		},
		{
			"buffer":0,
			"byteLength":18144,
			"byteOffset":237040,
			"target":34962
		},
		{
			"buffer":0,
			"byteLength":12096,
			"byteOffset":255184,
			"target":34962
		},
		{
			"buffer":0,
			"byteLength":18144,
			"byteOffset":267280,
			"target":34962
		},
		{
			"buffer":0,
			"byteLength":24192,
			"byteOffset":285424,
			"target":34962
		},
		{
			"buffer":0,
			"byteLength":6048,
			"byteOffset":309616,
			"target":34962
		},
		{
			"buffer":0,
			"byteLength":24192,
			"byteOffset":315664,
			"target":34962
		},
		{
			"buffer":0,
			"byteLength":6720,
			"byteOffset":339856,
			"target":34963
		},
		{
			"buffer":0,
			"byteLength":29832,
			"byteOffset":346576,
			"target":34962
		},
		{
			"buffer":0,
			"byteLength":19888,
			"byteOffset":376408,
			"target":34962
		},
		{
			"buffer":0,
			"byteLength":29832,
			"byteOffset":396296,
			"target":34962
		},
		{
			"buffer":0,
			"byteLength":39776,
			"byteOffset":426128,
			"target":34962
		},
		{
			"buffer":0,
			"byteLength":9944,
			"byteOffset":465904,
			"target":34962
		},
		{
			"buffer":0,
			"byteLength":39776,
			"byteOffset":475848,
			"target":34962
		},
		{
			"buffer":0,
			"byteLength":15840,
			"byteOffset":515624,
			"target":34963
		},
		{
			"buffer":0,
			"byteLength":39072,
			"byteOffset":531464,
			"target":34962
		},
		{
			"buffer":0,
			"byteLength":26048,
			"byteOffset":570536,
			"target":34962
		},
		{
			"buffer":0,
			"byteLength":39072,
			"byteOffset":596584,
			"target":34962
		},
		{
			"buffer":0,
			"byteLength":52096,
			"byteOffset":635656,
			"target":34962
		},
		{
			"buffer":0,
			"byteLength":13024,
			"byteOffset":687752,
			"target":34962
		},
		{
			"buffer":0,
			"byteLength":52096,
			"byteOffset":700776,
			"target":34962
		},
		{
			"buffer":0,
			"byteLength":20424,
			"byteOffset":752872,
			"target":34963
		},
		{
			"buffer":0,
			"byteLength":29556,
			"byteOffset":773296,
			"target":34962
		},
		{
			"buffer":0,
			"byteLength":19704,
			"byteOffset":802852,
			"target":34962
		},
		{
			"buffer":0,
			"byteLength":29556,
			"byteOffset":822556,
			"target":34962
		},
		{
			"buffer":0,
			"byteLength":39408,
			"byteOffset":852112,
			"target":34962
		},
		{
			"buffer":0,
			"byteLength":9852,
			"byteOffset":891520,
			"target":34962
		},
		{
			"buffer":0,
			"byteLength":39408,
			"byteOffset":901372,
			"target":34962
		},
		{
			"buffer":0,
			"byteLength":16656,
			"byteOffset":940780,
			"target":34963
		},
		{
			"buffer":0,
			"byteLength":22104,
			"byteOffset":957436,
			"target":34962
		},
		{
			"buffer":0,
			"byteLength":14736,
			"byteOffset":979540,
			"target":34962
		},
		{
			"buffer":0,
			"byteLength":22104,
			"byteOffset":994276,
			"target":34962
		},
		{
			"buffer":0,
			"byteLength":29472,
			"byteOffset":1016380,
			"target":34962
		},
		{
			"buffer":0,
			"byteLength":7368,
			"byteOffset":1045852,
			"target":34962
		},
		{
			"buffer":0,
			"byteLength":29472,
			"byteOffset":1053220,
			"target":34962
		},
		{
			"buffer":0,
			"byteLength":9996,
			"byteOffset":1082692,
			"target":34963
		},
		{
			"buffer":0,
			"byteLength":2448,
			"byteOffset":1092688,
			"target":34962
		},
		{
			"buffer":0,
			"byteLength":1632,
			"byteOffset":1095136,
			"target":34962
		},
		{
			"buffer":0,
			"byteLength":2448,
			"byteOffset":1096768,
			"target":34962
		},
		{
			"buffer":0,
			"byteLength":3264,
			"byteOffset":1099216,
			"target":34962
		},
		{
			"buffer":0,
			"byteLength":816,
			"byteOffset":1102480,
			"target":34962
		},
		{
			"buffer":0,
			"byteLength":3264,
			"byteOffset":1103296,
			"target":34962
		},
		{
			"buffer":0,
			"byteLength":1824,
			"byteOffset":1106560,
			"target":34963
		},
		{
			"buffer":0,
			"byteLength":8,
			"byteOffset":1108384
		},
		{
			"buffer":0,
			"byteLength":24,
			"byteOffset":1108392
		},
		{
			"buffer":0,
			"byteLength":32,
			"byteOffset":1108416
		},
		{
			"buffer":0,
			"byteLength":24,
			"byteOffset":1108448
		},
		{
			"buffer":0,
			"byteLength":80,
			"byteOffset":1108472
		},
		{
			"buffer":0,
			"byteLength":320,
			"byteOffset":1108552
		},
		{
			"buffer":0,
			"byteLength":240,
			"byteOffset":1108872
		},
		{
			"buffer":0,
			"byteLength":720,
			"byteOffset":1109112
		},
		{
			"buffer":0,
			"byteLength":8,
			"byteOffset":1109832
		},
		{
			"buffer":0,
			"byteLength":32,
			"byteOffset":1109840
		},
		{
			"buffer":0,
			"byteLength":720,
			"byteOffset":1109872
		},
		{
			"buffer":0,
			"byteLength":32,
			"byteOffset":1110592
		}
	],
	"samplers":[
		{
			"magFilter":9729,
			"minFilter":9987
		}
	],
	"buffers":[
		{
			"byteLength":1110624,
			"uri":"capsulegun.bin"
		}
	]
}
