{
	"asset":{
		"generator":"Khronos glTF Blender I/O v3.6.27",
		"version":"2.0"
	},
	"scene":0,
	"scenes":[
		{
			"name":"Scene",
			"nodes":[
				3
			]
		}
	],
	"nodes":[
		{
			"name":"root",
			"rotation":[
				0.7071066498756409,
				-3.0908616110991716e-08,
				-3.0908616110991716e-08,
				0.70710688829422
			]
		},
		{
			"mesh":0,
			"name":"mesh_scum_logo",
			"skin":0
		},
		{
			"mesh":1,
			"name":"mesh_scum_logo_bg",
			"skin":0
		},
		{
			"children":[
				1,
				2,
				0
			],
			"name":"scum_logo"
		}
	],
	"animations":[
		{
			"channels":[
				{
					"sampler":0,
					"target":{
						"node":0,
						"path":"translation"
					}
				},
				{
					"sampler":1,
					"target":{
						"node":0,
						"path":"rotation"
					}
				}
			],
			"name":"startup",
			"samplers":[
				{
					"input":14,
					"interpolation":"CUBICSPLINE",
					"output":15
				},
				{
					"input":14,
					"interpolation":"CUBICSPLINE",
					"output":16
				}
			]
		}
	],
	"materials":[
		{
			"doubleSided":true,
			"name":"scum_mat",
			"pbrMetallicRoughness":{
				"baseColorFactor":[
					0.005597431678324938,
					0.005597431678324938,
					0.005597431678324938,
					1
				],
				"metallicFactor":0,
				"roughnessFactor":0.5
			}
		},
		{
			"doubleSided":true,
			"name":"scum_bg_mat",
			"pbrMetallicRoughness":{
				"baseColorFactor":[
					0.800000011920929,
					0.800000011920929,
					0.800000011920929,
					1
				],
				"metallicFactor":0,
				"roughnessFactor":0.5
			}
		}
	],
	"meshes":[
		{
			"name":"Cube.002",
			"primitives":[
				{
					"attributes":{
						"POSITION":0,
						"NORMAL":1,
						"TEXCOORD_0":2,
						"JOINTS_0":3,
						"WEIGHTS_0":4
					},
					"indices":5,
					"material":0
				}
			]
		},
		{
			"name":"Plane",
			"primitives":[
				{
					"attributes":{
						"POSITION":7,
						"NORMAL":8,
						"TEXCOORD_0":9,
						"TANGENT":10,
						"JOINTS_0":11,
						"WEIGHTS_0":12
					},
					"indices":13,
					"material":1
				}
			]
		}
	],
	"skins":[
		{
			"inverseBindMatrices":6,
			"joints":[
				0
			],
			"name":"scum_logo"
		}
	],
	"accessors":[
		{
			"bufferView":0,
			"componentType":5126,
			"count":2774,
			"max":[
				1.100000023841858,
				0.3499999940395355,
				0.05000002682209015
			],
			"min":[
				-1.100000023841858,
				-0.3499999940395355,
				-0.05000002682209015
			],
			"type":"VEC3"
		},
		{
			"bufferView":1,
			"componentType":5126,
			"count":2774,
			"type":"VEC3"
		},
		{
			"bufferView":2,
			"componentType":5126,
			"count":2774,
			"type":"VEC2"
		},
		{
			"bufferView":3,
			"componentType":5121,
			"count":2774,
			"type":"VEC4"
		},
		{
			"bufferView":4,
			"componentType":5126,
			"count":2774,
			"type":"VEC4"
		},
		{
			"bufferView":5,
			"componentType":5123,
			"count":8172,
			"type":"SCALAR"
		},
		{
			"bufferView":6,
			"componentType":5126,
			"count":1,
			"type":"MAT4"
		},
		{
			"bufferView":7,
			"componentType":5126,
			"count":4,
			"max":[
				1.081148386001587,
				0.33259719610214233,
				-0.061946868896484375
			],
			"min":[
				-1.081148386001587,
				-0.33259719610214233,
				-0.06194692105054855
			],
			"type":"VEC3"
		},
		{
			"bufferView":8,
			"componentType":5126,
			"count":4,
			"type":"VEC3"
		},
		{
			"bufferView":9,
			"componentType":5126,
			"count":4,
			"type":"VEC2"
		},
		{
			"bufferView":10,
			"componentType":5126,
			"count":4,
			"type":"VEC4"
		},
		{
			"bufferView":11,
			"componentType":5121,
			"count":4,
			"type":"VEC4"
		},
		{
			"bufferView":12,
			"componentType":5126,
			"count":4,
			"type":"VEC4"
		},
		{
			"bufferView":13,
			"componentType":5123,
			"count":6,
			"type":"SCALAR"
		},
		{
			"bufferView":14,
			"componentType":5126,
			"count":3,
			"max":[
				2.5
			],
			"min":[
				0
			],
			"type":"SCALAR"
		},
		{
			"bufferView":15,
			"componentType":5126,
			"count":9,
			"type":"VEC3"
		},
		{
			"bufferView":16,
			"componentType":5126,
			"count":9,
			"type":"VEC4"
		}
	],
	"bufferViews":[
		{
			"buffer":0,
			"byteLength":33288,
			"byteOffset":0,
			"target":34962
		},
		{
			"buffer":0,
			"byteLength":33288,
			"byteOffset":33288,
			"target":34962
		},
		{
			"buffer":0,
			"byteLength":22192,
			"byteOffset":66576,
			"target":34962
		},
		{
			"buffer":0,
			"byteLength":11096,
			"byteOffset":88768,
			"target":34962
		},
		{
			"buffer":0,
			"byteLength":44384,
			"byteOffset":99864,
			"target":34962
		},
		{
			"buffer":0,
			"byteLength":16344,
			"byteOffset":144248,
			"target":34963
		},
		{
			"buffer":0,
			"byteLength":64,
			"byteOffset":160592
		},
		{
			"buffer":0,
			"byteLength":48,
			"byteOffset":160656,
			"target":34962
		},
		{
			"buffer":0,
			"byteLength":48,
			"byteOffset":160704,
			"target":34962
		},
		{
			"buffer":0,
			"byteLength":32,
			"byteOffset":160752,
			"target":34962
		},
		{
			"buffer":0,
			"byteLength":64,
			"byteOffset":160784,
			"target":34962
		},
		{
			"buffer":0,
			"byteLength":16,
			"byteOffset":160848,
			"target":34962
		},
		{
			"buffer":0,
			"byteLength":64,
			"byteOffset":160864,
			"target":34962
		},
		{
			"buffer":0,
			"byteLength":12,
			"byteOffset":160928,
			"target":34963
		},
		{
			"buffer":0,
			"byteLength":12,
			"byteOffset":160940
		},
		{
			"buffer":0,
			"byteLength":108,
			"byteOffset":160952
		},
		{
			"buffer":0,
			"byteLength":144,
			"byteOffset":161060
		}
	],
	"buffers":[
		{
			"byteLength":161204,
			"uri":"scumlogo.bin"
		}
	]
}
