{
	"asset":{
		"generator":"Khronos glTF Blender I/O v3.6.6",
		"version":"2.0"
	},
	"scene":0,
	"scenes":[
		{
			"name":"Scene",
			"nodes":[
				0
			]
		}
	],
	"nodes":[
		{
			"mesh":0,
			"name":"fireball"
		}
	],
	"materials":[
		{
			"doubleSided":true,
			"name":"fireball",
			"normalTexture":{
				"index":0
			},
			"pbrMetallicRoughness":{
				"baseColorTexture":{
					"index":1
				},
				"metallicFactor":0,
				"roughnessFactor":0.5
			}
		}
	],
	"meshes":[
		{
			"name":"Sphere.004",
			"primitives":[
				{
					"attributes":{
						"POSITION":0,
						"TEXCOORD_0":1,
						"NORMAL":2,
						"TANGENT":3
					},
					"indices":4,
					"material":0
				}
			]
		}
	],
	"textures":[
		{
			"sampler":0,
			"source":0
		},
		{
			"sampler":0,
			"source":1
		}
	],
	"images":[
		{
			"mimeType":"image/png",
			"name":"nmap_fireball",
			"uri":"../../blend/textures/nmap_fireball.png"
		},
		{
			"mimeType":"image/png",
			"name":"tex_fireball",
			"uri":"../../blend/textures/tex_fireball.png"
		}
	],
	"accessors":[
		{
			"bufferView":0,
			"componentType":5126,
			"count":564,
			"max":[
				0.2309698909521103,
				0.25,
				0.25
			],
			"min":[
				-0.2309698909521103,
				-0.25,
				-0.25
			],
			"type":"VEC3"
		},
		{
			"bufferView":1,
			"componentType":5126,
			"count":564,
			"type":"VEC2"
		},
		{
			"bufferView":2,
			"componentType":5126,
			"count":564,
			"type":"VEC3"
		},
		{
			"bufferView":3,
			"componentType":5126,
			"count":564,
			"type":"VEC4"
		},
		{
			"bufferView":4,
			"componentType":5123,
			"count":864,
			"type":"SCALAR"
		}
	],
	"bufferViews":[
		{
			"buffer":0,
			"byteLength":6768,
			"byteOffset":0,
			"target":34962
		},
		{
			"buffer":0,
			"byteLength":4512,
			"byteOffset":6768,
			"target":34962
		},
		{
			"buffer":0,
			"byteLength":6768,
			"byteOffset":11280,
			"target":34962
		},
		{
			"buffer":0,
			"byteLength":9024,
			"byteOffset":18048,
			"target":34962
		},
		{
			"buffer":0,
			"byteLength":1728,
			"byteOffset":27072,
			"target":34963
		}
	],
	"samplers":[
		{
			"magFilter":9729,
			"minFilter":9987
		}
	],
	"buffers":[
		{
			"byteLength":28800,
			"uri":"fireball.bin"
		}
	]
}
