{
	"asset":{
		"generator":"Khronos glTF Blender I/O v3.6.6",
		"version":"2.0"
	},
	"scene":0,
	"scenes":[
		{
			"name":"Scene",
			"nodes":[
				8
			]
		}
	],
	"nodes":[
		{
			"name":"barrels",
			"rotation":[
				-0.7071066498756409,
				5.024294934767972e-15,
				5.0242962053173926e-15,
				0.70710688829422
			],
			"translation":[
				-2.6645352591003757e-15,
				-5.894355581403943e-08,
				-0.05545412003993988
			]
		},
		{
			"name":"trigger",
			"rotation":[
				-0.944432258605957,
				-3.918481183973199e-08,
				1.1258507726097378e-07,
				0.32870611548423767
			],
			"scale":[
				1,
				0.9999999403953552,
				0.999999463558197
			],
			"translation":[
				1.7763568394002505e-15,
				-0.019963547587394714,
				0.15499429404735565
			]
		},
		{
			"children":[
				0,
				1
			],
			"name":"root",
			"rotation":[
				0,
				-1,
				-2.9802318834981634e-08,
				7.549789415861596e-08
			],
			"scale":[
				1,
				0.9999997019767761,
				0.9999999403953552
			]
		},
		{
			"mesh":0,
			"name":"barrel_selector_mesh",
			"skin":0
		},
		{
			"mesh":1,
			"name":"barrels_mesh",
			"skin":0
		},
		{
			"mesh":2,
			"name":"stock_mesh",
			"skin":0
		},
		{
			"mesh":3,
			"name":"trigger_l_mesh",
			"skin":0
		},
		{
			"mesh":4,
			"name":"trigger_r_mesh",
			"skin":0
		},
		{
			"children":[
				3,
				4,
				5,
				6,
				7,
				2
			],
			"name":"shotgun",
			"translation":[
				0,
				0.021683230996131897,
				0.09071651101112366
			]
		}
	],
	"animations":[
		{
			"channels":[
				{
					"sampler":0,
					"target":{
						"node":2,
						"path":"translation"
					}
				},
				{
					"sampler":1,
					"target":{
						"node":2,
						"path":"rotation"
					}
				},
				{
					"sampler":2,
					"target":{
						"node":2,
						"path":"scale"
					}
				},
				{
					"sampler":3,
					"target":{
						"node":0,
						"path":"translation"
					}
				},
				{
					"sampler":4,
					"target":{
						"node":0,
						"path":"rotation"
					}
				},
				{
					"sampler":5,
					"target":{
						"node":0,
						"path":"scale"
					}
				},
				{
					"sampler":6,
					"target":{
						"node":1,
						"path":"translation"
					}
				},
				{
					"sampler":7,
					"target":{
						"node":1,
						"path":"rotation"
					}
				},
				{
					"sampler":8,
					"target":{
						"node":1,
						"path":"scale"
					}
				}
			],
			"name":"fire",
			"samplers":[
				{
					"input":31,
					"interpolation":"LINEAR",
					"output":32
				},
				{
					"input":31,
					"interpolation":"LINEAR",
					"output":33
				},
				{
					"input":34,
					"interpolation":"LINEAR",
					"output":35
				},
				{
					"input":34,
					"interpolation":"LINEAR",
					"output":36
				},
				{
					"input":31,
					"interpolation":"LINEAR",
					"output":37
				},
				{
					"input":34,
					"interpolation":"LINEAR",
					"output":38
				},
				{
					"input":34,
					"interpolation":"LINEAR",
					"output":39
				},
				{
					"input":34,
					"interpolation":"LINEAR",
					"output":40
				},
				{
					"input":34,
					"interpolation":"LINEAR",
					"output":41
				}
			]
		},
		{
			"channels":[
				{
					"sampler":0,
					"target":{
						"node":2,
						"path":"translation"
					}
				},
				{
					"sampler":1,
					"target":{
						"node":2,
						"path":"rotation"
					}
				},
				{
					"sampler":2,
					"target":{
						"node":2,
						"path":"scale"
					}
				},
				{
					"sampler":3,
					"target":{
						"node":0,
						"path":"translation"
					}
				},
				{
					"sampler":4,
					"target":{
						"node":0,
						"path":"rotation"
					}
				},
				{
					"sampler":5,
					"target":{
						"node":0,
						"path":"scale"
					}
				},
				{
					"sampler":6,
					"target":{
						"node":1,
						"path":"translation"
					}
				},
				{
					"sampler":7,
					"target":{
						"node":1,
						"path":"rotation"
					}
				},
				{
					"sampler":8,
					"target":{
						"node":1,
						"path":"scale"
					}
				}
			],
			"name":"idle",
			"samplers":[
				{
					"input":31,
					"interpolation":"LINEAR",
					"output":42
				},
				{
					"input":31,
					"interpolation":"LINEAR",
					"output":43
				},
				{
					"input":34,
					"interpolation":"LINEAR",
					"output":44
				},
				{
					"input":34,
					"interpolation":"LINEAR",
					"output":45
				},
				{
					"input":34,
					"interpolation":"LINEAR",
					"output":46
				},
				{
					"input":34,
					"interpolation":"LINEAR",
					"output":47
				},
				{
					"input":34,
					"interpolation":"LINEAR",
					"output":48
				},
				{
					"input":34,
					"interpolation":"LINEAR",
					"output":49
				},
				{
					"input":34,
					"interpolation":"LINEAR",
					"output":50
				}
			]
		}
	],
	"materials":[
		{
			"doubleSided":true,
			"name":"shotgun",
			"normalTexture":{
				"index":0
			},
			"pbrMetallicRoughness":{
				"baseColorTexture":{
					"index":1
				},
				"metallicFactor":0,
				"roughnessFactor":0.5
			}
		}
	],
	"meshes":[
		{
			"name":"RetopoGroup002.001",
			"primitives":[
				{
					"attributes":{
						"POSITION":0,
						"TEXCOORD_0":1,
						"NORMAL":2,
						"JOINTS_0":3,
						"WEIGHTS_0":4
					},
					"indices":5,
					"material":0
				}
			]
		},
		{
			"name":"RetopoGroup1.001",
			"primitives":[
				{
					"attributes":{
						"POSITION":7,
						"TEXCOORD_0":8,
						"NORMAL":9,
						"JOINTS_0":10,
						"WEIGHTS_0":11
					},
					"indices":12,
					"material":0
				}
			]
		},
		{
			"name":"RetopoGroup003.001",
			"primitives":[
				{
					"attributes":{
						"POSITION":13,
						"TEXCOORD_0":14,
						"NORMAL":15,
						"JOINTS_0":16,
						"WEIGHTS_0":17
					},
					"indices":18,
					"material":0
				}
			]
		},
		{
			"name":"RetopoGroup004.001",
			"primitives":[
				{
					"attributes":{
						"POSITION":19,
						"TEXCOORD_0":20,
						"NORMAL":21,
						"JOINTS_0":22,
						"WEIGHTS_0":23
					},
					"indices":24,
					"material":0
				}
			]
		},
		{
			"name":"RetopoGroup1_copy1.001",
			"primitives":[
				{
					"attributes":{
						"POSITION":25,
						"TEXCOORD_0":26,
						"NORMAL":27,
						"JOINTS_0":28,
						"WEIGHTS_0":29
					},
					"indices":30,
					"material":0
				}
			]
		}
	],
	"textures":[
		{
			"sampler":0,
			"source":0
		},
		{
			"sampler":0,
			"source":1
		}
	],
	"images":[
		{
			"mimeType":"image/png",
			"name":"nmap_shotgun.png",
			"uri":"../../png/rgb/nmap_shotgun.png"
		},
		{
			"mimeType":"image/png",
			"name":"tex_shotgun.png",
			"uri":"../../png/gray/tex_shotgun.png"
		}
	],
	"skins":[
		{
			"inverseBindMatrices":6,
			"joints":[
				2,
				0,
				1
			],
			"name":"shotgun"
		}
	],
	"accessors":[
		{
			"bufferView":0,
			"componentType":5126,
			"count":305,
			"max":[
				0.013520322740077972,
				0.09669648855924606,
				0.03379878029227257
			],
			"min":[
				-0.013520345091819763,
				0.07713626325130463,
				-0.05859638750553131
			],
			"type":"VEC3"
		},
		{
			"bufferView":1,
			"componentType":5126,
			"count":305,
			"type":"VEC2"
		},
		{
			"bufferView":2,
			"componentType":5126,
			"count":305,
			"type":"VEC3"
		},
		{
			"bufferView":3,
			"componentType":5121,
			"count":305,
			"type":"VEC4"
		},
		{
			"bufferView":4,
			"componentType":5126,
			"count":305,
			"type":"VEC4"
		},
		{
			"bufferView":5,
			"componentType":5123,
			"count":1188,
			"type":"SCALAR"
		},
		{
			"bufferView":6,
			"componentType":5126,
			"count":3,
			"type":"MAT4"
		},
		{
			"bufferView":7,
			"componentType":5126,
			"count":1506,
			"max":[
				0.06334425508975983,
				0.10347498953342438,
				0.510712742805481
			],
			"min":[
				-0.06334415078163147,
				-9.868107736110687e-05,
				0.0324375182390213
			],
			"type":"VEC3"
		},
		{
			"bufferView":8,
			"componentType":5126,
			"count":1506,
			"type":"VEC2"
		},
		{
			"bufferView":9,
			"componentType":5126,
			"count":1506,
			"type":"VEC3"
		},
		{
			"bufferView":10,
			"componentType":5121,
			"count":1506,
			"type":"VEC4"
		},
		{
			"bufferView":11,
			"componentType":5126,
			"count":1506,
			"type":"VEC4"
		},
		{
			"bufferView":12,
			"componentType":5123,
			"count":5154,
			"type":"SCALAR"
		},
		{
			"bufferView":13,
			"componentType":5126,
			"count":1707,
			"max":[
				0.06329309940338135,
				0.10330129414796829,
				0.16611610352993011
			],
			"min":[
				-0.06329311430454254,
				-0.08234591037034988,
				-0.25611236691474915
			],
			"type":"VEC3"
		},
		{
			"bufferView":14,
			"componentType":5126,
			"count":1707,
			"type":"VEC2"
		},
		{
			"bufferView":15,
			"componentType":5126,
			"count":1707,
			"type":"VEC3"
		},
		{
			"bufferView":16,
			"componentType":5121,
			"count":1707,
			"type":"VEC4"
		},
		{
			"bufferView":17,
			"componentType":5126,
			"count":1707,
			"type":"VEC4"
		},
		{
			"bufferView":18,
			"componentType":5123,
			"count":7134,
			"type":"SCALAR"
		},
		{
			"bufferView":19,
			"componentType":5126,
			"count":226,
			"max":[
				0.0025239423848688602,
				0.002191442996263504,
				-0.05726651847362518
			],
			"min":[
				0.00043385830940678716,
				-0.030856329947710037,
				-0.0850335955619812
			],
			"type":"VEC3"
		},
		{
			"bufferView":20,
			"componentType":5126,
			"count":226,
			"type":"VEC2"
		},
		{
			"bufferView":21,
			"componentType":5126,
			"count":226,
			"type":"VEC3"
		},
		{
			"bufferView":22,
			"componentType":5121,
			"count":226,
			"type":"VEC4"
		},
		{
			"bufferView":23,
			"componentType":5126,
			"count":226,
			"type":"VEC4"
		},
		{
			"bufferView":24,
			"componentType":5123,
			"count":780,
			"type":"SCALAR"
		},
		{
			"bufferView":25,
			"componentType":5126,
			"count":227,
			"max":[
				-0.0004291139484848827,
				0.012592380866408348,
				-0.07002495229244232
			],
			"min":[
				-0.002517241518944502,
				-0.030075382441282272,
				-0.09118710458278656
			],
			"type":"VEC3"
		},
		{
			"bufferView":26,
			"componentType":5126,
			"count":227,
			"type":"VEC2"
		},
		{
			"bufferView":27,
			"componentType":5126,
			"count":227,
			"type":"VEC3"
		},
		{
			"bufferView":28,
			"componentType":5121,
			"count":227,
			"type":"VEC4"
		},
		{
			"bufferView":29,
			"componentType":5126,
			"count":227,
			"type":"VEC4"
		},
		{
			"bufferView":30,
			"componentType":5123,
			"count":780,
			"type":"SCALAR"
		},
		{
			"bufferView":31,
			"componentType":5126,
			"count":30,
			"max":[
				0.9666666666666667
			],
			"min":[
				0
			],
			"type":"SCALAR"
		},
		{
			"bufferView":32,
			"componentType":5126,
			"count":30,
			"type":"VEC3"
		},
		{
			"bufferView":33,
			"componentType":5126,
			"count":30,
			"type":"VEC4"
		},
		{
			"bufferView":34,
			"componentType":5126,
			"count":2,
			"max":[
				0.9666666666666667
			],
			"min":[
				0
			],
			"type":"SCALAR"
		},
		{
			"bufferView":35,
			"componentType":5126,
			"count":2,
			"type":"VEC3"
		},
		{
			"bufferView":36,
			"componentType":5126,
			"count":2,
			"type":"VEC3"
		},
		{
			"bufferView":37,
			"componentType":5126,
			"count":30,
			"type":"VEC4"
		},
		{
			"bufferView":38,
			"componentType":5126,
			"count":2,
			"type":"VEC3"
		},
		{
			"bufferView":39,
			"componentType":5126,
			"count":2,
			"type":"VEC3"
		},
		{
			"bufferView":40,
			"componentType":5126,
			"count":2,
			"type":"VEC4"
		},
		{
			"bufferView":41,
			"componentType":5126,
			"count":2,
			"type":"VEC3"
		},
		{
			"bufferView":42,
			"componentType":5126,
			"count":30,
			"type":"VEC3"
		},
		{
			"bufferView":43,
			"componentType":5126,
			"count":30,
			"type":"VEC4"
		},
		{
			"bufferView":44,
			"componentType":5126,
			"count":2,
			"type":"VEC3"
		},
		{
			"bufferView":45,
			"componentType":5126,
			"count":2,
			"type":"VEC3"
		},
		{
			"bufferView":46,
			"componentType":5126,
			"count":2,
			"type":"VEC4"
		},
		{
			"bufferView":47,
			"componentType":5126,
			"count":2,
			"type":"VEC3"
		},
		{
			"bufferView":48,
			"componentType":5126,
			"count":2,
			"type":"VEC3"
		},
		{
			"bufferView":49,
			"componentType":5126,
			"count":2,
			"type":"VEC4"
		},
		{
			"bufferView":50,
			"componentType":5126,
			"count":2,
			"type":"VEC3"
		}
	],
	"bufferViews":[
		{
			"buffer":0,
			"byteLength":3660,
			"byteOffset":0,
			"target":34962
		},
		{
			"buffer":0,
			"byteLength":2440,
			"byteOffset":3660,
			"target":34962
		},
		{
			"buffer":0,
			"byteLength":3660,
			"byteOffset":6100,
			"target":34962
		},
		{
			"buffer":0,
			"byteLength":1220,
			"byteOffset":9760,
			"target":34962
		},
		{
			"buffer":0,
			"byteLength":4880,
			"byteOffset":10980,
			"target":34962
		},
		{
			"buffer":0,
			"byteLength":2376,
			"byteOffset":15860,
			"target":34963
		},
		{
			"buffer":0,
			"byteLength":192,
			"byteOffset":18236
		},
		{
			"buffer":0,
			"byteLength":18072,
			"byteOffset":18428,
			"target":34962
		},
		{
			"buffer":0,
			"byteLength":12048,
			"byteOffset":36500,
			"target":34962
		},
		{
			"buffer":0,
			"byteLength":18072,
			"byteOffset":48548,
			"target":34962
		},
		{
			"buffer":0,
			"byteLength":6024,
			"byteOffset":66620,
			"target":34962
		},
		{
			"buffer":0,
			"byteLength":24096,
			"byteOffset":72644,
			"target":34962
		},
		{
			"buffer":0,
			"byteLength":10308,
			"byteOffset":96740,
			"target":34963
		},
		{
			"buffer":0,
			"byteLength":20484,
			"byteOffset":107048,
			"target":34962
		},
		{
			"buffer":0,
			"byteLength":13656,
			"byteOffset":127532,
			"target":34962
		},
		{
			"buffer":0,
			"byteLength":20484,
			"byteOffset":141188,
			"target":34962
		},
		{
			"buffer":0,
			"byteLength":6828,
			"byteOffset":161672,
			"target":34962
		},
		{
			"buffer":0,
			"byteLength":27312,
			"byteOffset":168500,
			"target":34962
		},
		{
			"buffer":0,
			"byteLength":14268,
			"byteOffset":195812,
			"target":34963
		},
		{
			"buffer":0,
			"byteLength":2712,
			"byteOffset":210080,
			"target":34962
		},
		{
			"buffer":0,
			"byteLength":1808,
			"byteOffset":212792,
			"target":34962
		},
		{
			"buffer":0,
			"byteLength":2712,
			"byteOffset":214600,
			"target":34962
		},
		{
			"buffer":0,
			"byteLength":904,
			"byteOffset":217312,
			"target":34962
		},
		{
			"buffer":0,
			"byteLength":3616,
			"byteOffset":218216,
			"target":34962
		},
		{
			"buffer":0,
			"byteLength":1560,
			"byteOffset":221832,
			"target":34963
		},
		{
			"buffer":0,
			"byteLength":2724,
			"byteOffset":223392,
			"target":34962
		},
		{
			"buffer":0,
			"byteLength":1816,
			"byteOffset":226116,
			"target":34962
		},
		{
			"buffer":0,
			"byteLength":2724,
			"byteOffset":227932,
			"target":34962
		},
		{
			"buffer":0,
			"byteLength":908,
			"byteOffset":230656,
			"target":34962
		},
		{
			"buffer":0,
			"byteLength":3632,
			"byteOffset":231564,
			"target":34962
		},
		{
			"buffer":0,
			"byteLength":1560,
			"byteOffset":235196,
			"target":34963
		},
		{
			"buffer":0,
			"byteLength":120,
			"byteOffset":236756
		},
		{
			"buffer":0,
			"byteLength":360,
			"byteOffset":236876
		},
		{
			"buffer":0,
			"byteLength":480,
			"byteOffset":237236
		},
		{
			"buffer":0,
			"byteLength":8,
			"byteOffset":237716
		},
		{
			"buffer":0,
			"byteLength":24,
			"byteOffset":237724
		},
		{
			"buffer":0,
			"byteLength":24,
			"byteOffset":237748
		},
		{
			"buffer":0,
			"byteLength":480,
			"byteOffset":237772
		},
		{
			"buffer":0,
			"byteLength":24,
			"byteOffset":238252
		},
		{
			"buffer":0,
			"byteLength":24,
			"byteOffset":238276
		},
		{
			"buffer":0,
			"byteLength":32,
			"byteOffset":238300
		},
		{
			"buffer":0,
			"byteLength":24,
			"byteOffset":238332
		},
		{
			"buffer":0,
			"byteLength":360,
			"byteOffset":238356
		},
		{
			"buffer":0,
			"byteLength":480,
			"byteOffset":238716
		},
		{
			"buffer":0,
			"byteLength":24,
			"byteOffset":239196
		},
		{
			"buffer":0,
			"byteLength":24,
			"byteOffset":239220
		},
		{
			"buffer":0,
			"byteLength":32,
			"byteOffset":239244
		},
		{
			"buffer":0,
			"byteLength":24,
			"byteOffset":239276
		},
		{
			"buffer":0,
			"byteLength":24,
			"byteOffset":239300
		},
		{
			"buffer":0,
			"byteLength":32,
			"byteOffset":239324
		},
		{
			"buffer":0,
			"byteLength":24,
			"byteOffset":239356
		}
	],
	"samplers":[
		{
			"magFilter":9729,
			"minFilter":9987
		}
	],
	"buffers":[
		{
			"byteLength":239380,
			"uri":"shotgun.bin"
		}
	]
}
