{
	"asset":{
		"generator":"Khronos glTF Blender I/O v3.6.6",
		"version":"2.0"
	},
	"extensionsUsed":[
		"KHR_materials_specular",
		"KHR_materials_ior"
	],
	"scene":0,
	"scenes":[
		{
			"name":"Scene",
			"nodes":[
				4
			]
		}
	],
	"nodes":[
		{
			"name":"bolt",
			"translation":[
				-1.7763568394002505e-15,
				0.09238621592521667,
				0.11878228187561035
			]
		},
		{
			"children":[
				0
			],
			"name":"root",
			"rotation":[
				0,
				1.5099580252808664e-07,
				0,
				1
			],
			"translation":[
				-3.985694618791058e-08,
				0,
				-0.1319803148508072
			]
		},
		{
			"mesh":0,
			"name":"base_mesh",
			"skin":0
		},
		{
			"mesh":1,
			"name":"bolt_mesh",
			"skin":0
		},
		{
			"children":[
				2,
				3,
				1
			],
			"name":"smg",
			"translation":[
				0,
				-0.04999999701976776,
				0.10999999940395355
			]
		}
	],
	"animations":[
		{
			"channels":[
				{
					"sampler":0,
					"target":{
						"node":0,
						"path":"translation"
					}
				},
				{
					"sampler":1,
					"target":{
						"node":1,
						"path":"rotation"
					}
				},
				{
					"sampler":2,
					"target":{
						"node":0,
						"path":"rotation"
					}
				},
				{
					"sampler":3,
					"target":{
						"node":1,
						"path":"translation"
					}
				}
			],
			"name":"fire",
			"samplers":[
				{
					"input":15,
					"interpolation":"CUBICSPLINE",
					"output":16
				},
				{
					"input":17,
					"interpolation":"CUBICSPLINE",
					"output":18
				},
				{
					"input":19,
					"interpolation":"LINEAR",
					"output":20
				},
				{
					"input":21,
					"interpolation":"LINEAR",
					"output":22
				}
			]
		},
		{
			"channels":[
				{
					"sampler":0,
					"target":{
						"node":0,
						"path":"rotation"
					}
				},
				{
					"sampler":1,
					"target":{
						"node":1,
						"path":"translation"
					}
				},
				{
					"sampler":2,
					"target":{
						"node":1,
						"path":"rotation"
					}
				},
				{
					"sampler":3,
					"target":{
						"node":0,
						"path":"translation"
					}
				}
			],
			"name":"idle",
			"samplers":[
				{
					"input":19,
					"interpolation":"CUBICSPLINE",
					"output":23
				},
				{
					"input":24,
					"interpolation":"CUBICSPLINE",
					"output":25
				},
				{
					"input":24,
					"interpolation":"CUBICSPLINE",
					"output":26
				},
				{
					"input":27,
					"interpolation":"LINEAR",
					"output":28
				}
			]
		}
	],
	"materials":[
		{
			"doubleSided":true,
			"extensions":{
				"KHR_materials_specular":{
					"specularColorFactor":[
						0,
						0,
						0
					]
				},
				"KHR_materials_ior":{
					"ior":1.4500000476837158
				}
			},
			"name":"smg",
			"normalTexture":{
				"index":0
			},
			"pbrMetallicRoughness":{
				"baseColorTexture":{
					"index":1
				},
				"metallicFactor":0,
				"roughnessFactor":0.5
			}
		}
	],
	"meshes":[
		{
			"name":"base_geo",
			"primitives":[
				{
					"attributes":{
						"POSITION":0,
						"TEXCOORD_0":1,
						"NORMAL":2,
						"TANGENT":3,
						"JOINTS_0":4,
						"WEIGHTS_0":5
					},
					"indices":6,
					"material":0
				}
			]
		},
		{
			"name":"bolt_geo",
			"primitives":[
				{
					"attributes":{
						"POSITION":8,
						"TEXCOORD_0":9,
						"NORMAL":10,
						"TANGENT":11,
						"JOINTS_0":12,
						"WEIGHTS_0":13
					},
					"indices":14,
					"material":0
				}
			]
		}
	],
	"textures":[
		{
			"sampler":0,
			"source":0
		},
		{
			"sampler":0,
			"source":1
		}
	],
	"images":[
		{
			"mimeType":"image/png",
			"name":"nmap_smg",
			"uri":"../../png/rgb/nmap_smg.png"
		},
		{
			"mimeType":"image/png",
			"name":"tex_smg",
			"uri":"../../png/gray/tex_smg.png"
		}
	],
	"skins":[
		{
			"inverseBindMatrices":7,
			"joints":[
				1,
				0
			],
			"name":"smg"
		}
	],
	"accessors":[
		{
			"bufferView":0,
			"componentType":5126,
			"count":4434,
			"max":[
				0.03468942269682884,
				0.1400890052318573,
				0.4757673740386963
			],
			"min":[
				-0.034689564257860184,
				-0.20648300647735596,
				-0.24183829128742218
			],
			"type":"VEC3"
		},
		{
			"bufferView":1,
			"componentType":5126,
			"count":4434,
			"type":"VEC2"
		},
		{
			"bufferView":2,
			"componentType":5126,
			"count":4434,
			"type":"VEC3"
		},
		{
			"bufferView":3,
			"componentType":5126,
			"count":4434,
			"type":"VEC4"
		},
		{
			"bufferView":4,
			"componentType":5121,
			"count":4434,
			"type":"VEC4"
		},
		{
			"bufferView":5,
			"componentType":5126,
			"count":4434,
			"type":"VEC4"
		},
		{
			"bufferView":6,
			"componentType":5123,
			"count":14592,
			"type":"SCALAR"
		},
		{
			"bufferView":7,
			"componentType":5126,
			"count":2,
			"type":"MAT4"
		},
		{
			"bufferView":8,
			"componentType":5126,
			"count":148,
			"max":[
				0.04131811857223511,
				0.06675191968679428,
				0.10822244733572006
			],
			"min":[
				-0.041318126022815704,
				0.04060160368680954,
				0.08335200697183609
			],
			"type":"VEC3"
		},
		{
			"bufferView":9,
			"componentType":5126,
			"count":148,
			"type":"VEC2"
		},
		{
			"bufferView":10,
			"componentType":5126,
			"count":148,
			"type":"VEC3"
		},
		{
			"bufferView":11,
			"componentType":5126,
			"count":148,
			"type":"VEC4"
		},
		{
			"bufferView":12,
			"componentType":5121,
			"count":148,
			"type":"VEC4"
		},
		{
			"bufferView":13,
			"componentType":5126,
			"count":148,
			"type":"VEC4"
		},
		{
			"bufferView":14,
			"componentType":5123,
			"count":408,
			"type":"SCALAR"
		},
		{
			"bufferView":15,
			"componentType":5126,
			"count":3,
			"max":[
				0.13333333333333333
			],
			"min":[
				0
			],
			"type":"SCALAR"
		},
		{
			"bufferView":16,
			"componentType":5126,
			"count":9,
			"type":"VEC3"
		},
		{
			"bufferView":17,
			"componentType":5126,
			"count":4,
			"max":[
				0.13333333333333333
			],
			"min":[
				0
			],
			"type":"SCALAR"
		},
		{
			"bufferView":18,
			"componentType":5126,
			"count":12,
			"type":"VEC4"
		},
		{
			"bufferView":19,
			"componentType":5126,
			"count":2,
			"max":[
				0.13333333333333333
			],
			"min":[
				0
			],
			"type":"SCALAR"
		},
		{
			"bufferView":20,
			"componentType":5126,
			"count":2,
			"type":"VEC4"
		},
		{
			"bufferView":21,
			"componentType":5126,
			"count":5,
			"max":[
				0.13333333333333333
			],
			"min":[
				0
			],
			"type":"SCALAR"
		},
		{
			"bufferView":22,
			"componentType":5126,
			"count":5,
			"type":"VEC3"
		},
		{
			"bufferView":23,
			"componentType":5126,
			"count":6,
			"type":"VEC4"
		},
		{
			"bufferView":24,
			"componentType":5126,
			"count":3,
			"max":[
				1.9666666666666666
			],
			"min":[
				0
			],
			"type":"SCALAR"
		},
		{
			"bufferView":25,
			"componentType":5126,
			"count":9,
			"type":"VEC3"
		},
		{
			"bufferView":26,
			"componentType":5126,
			"count":9,
			"type":"VEC4"
		},
		{
			"bufferView":27,
			"componentType":5126,
			"count":2,
			"max":[
				1.9666666666666666
			],
			"min":[
				0
			],
			"type":"SCALAR"
		},
		{
			"bufferView":28,
			"componentType":5126,
			"count":2,
			"type":"VEC3"
		}
	],
	"bufferViews":[
		{
			"buffer":0,
			"byteLength":53208,
			"byteOffset":0,
			"target":34962
		},
		{
			"buffer":0,
			"byteLength":35472,
			"byteOffset":53208,
			"target":34962
		},
		{
			"buffer":0,
			"byteLength":53208,
			"byteOffset":88680,
			"target":34962
		},
		{
			"buffer":0,
			"byteLength":70944,
			"byteOffset":141888,
			"target":34962
		},
		{
			"buffer":0,
			"byteLength":17736,
			"byteOffset":212832,
			"target":34962
		},
		{
			"buffer":0,
			"byteLength":70944,
			"byteOffset":230568,
			"target":34962
		},
		{
			"buffer":0,
			"byteLength":29184,
			"byteOffset":301512,
			"target":34963
		},
		{
			"buffer":0,
			"byteLength":128,
			"byteOffset":330696
		},
		{
			"buffer":0,
			"byteLength":1776,
			"byteOffset":330824,
			"target":34962
		},
		{
			"buffer":0,
			"byteLength":1184,
			"byteOffset":332600,
			"target":34962
		},
		{
			"buffer":0,
			"byteLength":1776,
			"byteOffset":333784,
			"target":34962
		},
		{
			"buffer":0,
			"byteLength":2368,
			"byteOffset":335560,
			"target":34962
		},
		{
			"buffer":0,
			"byteLength":592,
			"byteOffset":337928,
			"target":34962
		},
		{
			"buffer":0,
			"byteLength":2368,
			"byteOffset":338520,
			"target":34962
		},
		{
			"buffer":0,
			"byteLength":816,
			"byteOffset":340888,
			"target":34963
		},
		{
			"buffer":0,
			"byteLength":12,
			"byteOffset":341704
		},
		{
			"buffer":0,
			"byteLength":108,
			"byteOffset":341716
		},
		{
			"buffer":0,
			"byteLength":16,
			"byteOffset":341824
		},
		{
			"buffer":0,
			"byteLength":192,
			"byteOffset":341840
		},
		{
			"buffer":0,
			"byteLength":8,
			"byteOffset":342032
		},
		{
			"buffer":0,
			"byteLength":32,
			"byteOffset":342040
		},
		{
			"buffer":0,
			"byteLength":20,
			"byteOffset":342072
		},
		{
			"buffer":0,
			"byteLength":60,
			"byteOffset":342092
		},
		{
			"buffer":0,
			"byteLength":96,
			"byteOffset":342152
		},
		{
			"buffer":0,
			"byteLength":12,
			"byteOffset":342248
		},
		{
			"buffer":0,
			"byteLength":108,
			"byteOffset":342260
		},
		{
			"buffer":0,
			"byteLength":144,
			"byteOffset":342368
		},
		{
			"buffer":0,
			"byteLength":8,
			"byteOffset":342512
		},
		{
			"buffer":0,
			"byteLength":24,
			"byteOffset":342520
		}
	],
	"samplers":[
		{
			"magFilter":9729,
			"minFilter":9987
		}
	],
	"buffers":[
		{
			"byteLength":342544,
			"uri":"smg.bin"
		}
	]
}
